<?xml version="1.0" encoding="UTF-8" standalone="no"?>
<!DOCTYPE svg PUBLIC "-//W3C//DTD SVG 1.1//EN" "http://www.w3.org/Graphics/SVG/1.1/DTD/svg11.dtd">
<svg width="100%" height="100%" viewBox="0 0 2896 583" version="1.1" xmlns="http://www.w3.org/2000/svg" xmlns:xlink="http://www.w3.org/1999/xlink" xml:space="preserve" xmlns:serif="http://www.serif.com/" style="fill-rule:evenodd;clip-rule:evenodd;stroke-linejoin:round;stroke-miterlimit:2;">
    <g transform="matrix(1,0,0,1,0,-731.164563)">
        <g id="Mesa-de-trabajo1" serif:id="Mesa de trabajo1" transform="matrix(1.560232,0,0,0.829774,0,731.164563)">
            <rect x="0" y="0" width="1855.847" height="702.255" style="fill:none;"/>
            <g id="Capa_2" transform="matrix(0.64093,0,0,1.205148,0,0)">
                <g transform="matrix(1,0,0,1,0,5.547269)">
                    <path d="M720.72,401.968L927.64,549.058L546.14,245.658L546.16,245.648L544.62,244.448L463.54,181.548L428.28,208.898L382.11,245.618L0,549.498L206.92,402.408L11.32,563.668L179.02,453.348L41.65,571.618L389.32,346.978L464.16,298.628L538.32,346.538L885.99,571.178L748.62,452.908L916.32,563.228L720.72,401.968Z" style="fill:white;fill-rule:nonzero;"/>
                </g>
                <g transform="matrix(1,0,0,1,0,5.547269)">
                    <path d="M920.514,374.729C920.416,374.327 920.053,374.042 919.639,374.045L901.627,373.338L896.3,354.769C896.18,354.38 895.829,354.106 895.423,354.084C895.013,354.068 894.638,354.319 894.496,354.704L887.805,372.794L869.145,372.061C869.133,372.061 869.121,372.061 869.11,372.061C868.588,372.061 868.159,372.49 868.159,373.011C868.159,373.301 868.291,373.575 868.518,373.755L883.156,385.364L876.379,403.683C876.34,403.789 876.32,403.901 876.32,404.014C876.32,404.535 876.749,404.964 877.271,404.964C877.459,404.964 877.644,404.908 877.801,404.803L893.961,393.903L908.932,404.979C909.095,405.099 909.293,405.165 909.497,405.165C910.018,405.165 910.447,404.735 910.447,404.214C910.447,404.126 910.435,404.037 910.41,403.952L905.28,386.072L920.143,375.775C920.478,375.543 920.628,375.12 920.514,374.729Z" style="fill:white;fill-rule:nonzero;"/>
                </g>
                <g transform="matrix(1,0,0,1,0,5.547269)">
                    <path d="M889.292,327.051C889.441,327.144 889.614,327.193 889.79,327.193C890.311,327.193 890.74,326.764 890.74,326.243C890.74,326.128 890.719,326.014 890.678,325.906L884.081,308.513L898.038,297.017C898.352,296.758 898.466,296.324 898.32,295.944C898.188,295.553 897.803,295.301 897.392,295.335L879.384,296.126L872.534,278.066C872.394,277.698 872.039,277.453 871.645,277.453C871.22,277.453 870.844,277.739 870.729,278.149L865.564,296.733L846.907,297.552C846.402,297.575 846,297.996 846,298.501C846,298.819 846.159,299.116 846.423,299.292L861.975,309.645L856.743,328.466C856.632,328.86 856.789,329.284 857.131,329.509C857.293,329.619 857.486,329.675 857.682,329.669C857.89,329.663 858.09,329.59 858.252,329.461L873.451,317.257L889.292,327.051Z" style="fill:white;fill-rule:nonzero;"/>
                </g>
                <g transform="matrix(1,0,0,1,0,5.547269)">
                    <path d="M859.158,254.858C859.46,254.586 859.554,254.149 859.392,253.776L851.984,236.713L865.383,224.573C865.686,224.299 865.78,223.859 865.614,223.486C865.464,223.102 865.068,222.868 864.659,222.923L846.708,224.561L839.016,206.843C838.848,206.471 838.462,206.244 838.056,206.276C837.648,206.313 837.308,206.611 837.218,207.011L832.932,225.817L814.334,227.513C813.848,227.559 813.472,227.971 813.472,228.46C813.472,228.793 813.647,229.103 813.933,229.274L829.955,238.884L825.614,257.931C825.599,258 825.591,258.07 825.591,258.141C825.591,258.662 826.019,259.091 826.54,259.091C826.772,259.091 826.995,259.006 827.169,258.853L841.777,245.948L858.06,254.985C858.415,255.182 858.858,255.131 859.158,254.858Z" style="fill:white;fill-rule:nonzero;"/>
                </g>
                <g transform="matrix(1,0,0,1,0,5.547269)">
                    <path d="M818.883,184.203L818.884,184.201C819.099,183.848 819.043,183.391 818.75,183.1L806.543,169.837L815.942,152.963C816.021,152.821 816.062,152.662 816.062,152.501C816.062,151.979 815.634,151.551 815.113,151.551C814.976,151.551 814.842,151.58 814.718,151.637L797.176,159.658L784.529,145.917C784.35,145.722 784.096,145.612 783.831,145.612C783.31,145.612 782.881,146.041 782.881,146.562C782.881,146.598 782.883,146.633 782.887,146.668L784.988,165.232L767.223,173.357C766.886,173.511 766.669,173.849 766.669,174.22C766.669,174.672 766.991,175.064 767.435,175.152L786.56,178.914L789.275,197.338C789.344,197.802 789.746,198.149 790.215,198.149C790.559,198.149 790.877,197.962 791.045,197.662L800.097,181.41L817.88,184.678C818.281,184.752 818.687,184.56 818.883,184.203Z" style="fill:white;fill-rule:nonzero;"/>
                </g>
                <g transform="matrix(1,0,0,1,0,5.547269)">
                    <path d="M761.196,122.705L745.684,113.524L749.82,94.656C749.835,94.59 749.842,94.521 749.842,94.453C749.842,93.932 749.413,93.503 748.892,93.503C748.662,93.503 748.438,93.587 748.265,93.74L733.78,106.477L717.71,96.965C717.564,96.878 717.397,96.833 717.227,96.833C716.706,96.833 716.277,97.262 716.277,97.783C716.277,97.912 716.303,98.039 716.353,98.157L723.716,115.327L709.047,128.228C708.842,128.408 708.725,128.668 708.725,128.94C708.725,129.461 709.154,129.89 709.675,129.89C709.705,129.89 709.736,129.889 709.767,129.886L729.165,127.975L737.075,144.835C737.232,145.168 737.568,145.381 737.935,145.381C738.38,145.381 738.768,145.069 738.864,144.635L742.847,126.464L760.816,124.467C761.222,124.423 761.555,124.122 761.641,123.723L761.641,123.721C761.743,123.322 761.558,122.901 761.196,122.705Z" style="fill:white;fill-rule:nonzero;"/>
                </g>
                <g transform="matrix(1,0,0,1,0,5.547269)">
                    <path d="M691.32,73.186L674.405,66.959L675.064,47.655C675.072,47.247 674.822,46.876 674.442,46.73C674.057,46.589 673.622,46.712 673.369,47.034L661.423,62.179L643.9,55.726C643.795,55.688 643.684,55.668 643.572,55.668C643.051,55.668 642.622,56.097 642.622,56.618C642.622,56.805 642.677,56.988 642.78,57.144L653.125,72.702L641.027,88.04C640.895,88.208 640.824,88.415 640.824,88.627C640.824,89.018 641.065,89.371 641.429,89.513C641.623,89.587 641.836,89.597 642.036,89.541L660.77,84.157L671.595,99.31C671.773,99.559 672.061,99.707 672.367,99.707C672.876,99.707 673.299,99.299 673.317,98.79L673.952,80.199L691.265,74.988C691.656,74.872 691.93,74.515 691.942,74.107L691.941,74.105C691.971,73.693 691.713,73.312 691.32,73.186Z" style="fill:white;fill-rule:nonzero;"/>
                </g>
                <g transform="matrix(1,0,0,1,0,5.547269)">
                    <path d="M609.329,38.275L591.583,35.113L588.844,15.992C588.782,15.589 588.47,15.268 588.07,15.192C587.666,15.12 587.26,15.317 587.067,15.679L577.964,32.685L559.58,29.408C559.526,29.398 559.47,29.393 559.414,29.393C558.893,29.393 558.464,29.822 558.464,30.344C558.464,30.588 558.558,30.823 558.727,31L571.642,44.501L562.423,61.724C562.349,61.862 562.311,62.016 562.311,62.172C562.311,62.624 562.633,63.016 563.077,63.103C563.281,63.143 563.492,63.116 563.679,63.025L581.178,54.437L594.494,67.455C594.672,67.628 594.91,67.725 595.158,67.725C595.679,67.725 596.108,67.296 596.108,66.775C596.108,66.73 596.105,66.686 596.099,66.641L593.461,48.227L609.591,40.059C609.955,39.876 610.162,39.477 610.103,39.073L610.102,39.071C610.057,38.661 609.737,38.332 609.329,38.275Z" style="fill:white;fill-rule:nonzero;"/>
                </g>
                <g transform="matrix(1,0,0,1,0,5.547269)">
                    <path d="M522.775,20.183C522.668,19.786 522.301,19.51 521.889,19.517L503.867,19.138L498.203,0.671C498.077,0.284 497.721,0.015 497.314,0C496.904,-0.009 496.533,0.249 496.398,0.637L490.037,18.846L471.367,18.452C471.36,18.452 471.354,18.452 471.348,18.452C470.827,18.452 470.398,18.881 470.398,19.402C470.398,19.698 470.536,19.977 470.771,20.157L485.617,31.497L479.174,49.939C479.139,50.04 479.121,50.146 479.121,50.252C479.121,50.773 479.55,51.202 480.071,51.202C480.266,51.202 480.456,51.142 480.616,51.03L496.576,39.839L511.746,50.64C511.907,50.755 512.099,50.816 512.297,50.816C512.818,50.816 513.247,50.387 513.247,49.866C513.247,49.772 513.233,49.678 513.205,49.588L507.75,31.803L522.422,21.239C522.754,21.001 522.897,20.575 522.776,20.185L522.775,20.183Z" style="fill:white;fill-rule:nonzero;"/>
                </g>
                <g transform="matrix(1,0,0,1,0,5.547269)">
                    <path d="M424.697,20.661L406.779,22.628L398.761,5.055C398.588,4.685 398.198,4.464 397.792,4.505C397.385,4.55 397.051,4.854 396.968,5.255L393.028,24.138L374.466,26.175C373.987,26.228 373.62,26.637 373.62,27.119C373.62,27.459 373.802,27.773 374.096,27.943L390.291,37.256L386.301,56.379C386.288,56.443 386.281,56.508 386.281,56.573C386.281,57.094 386.71,57.523 387.231,57.523C387.26,57.523 387.289,57.521 387.317,57.519C387.524,57.499 387.719,57.413 387.873,57.273L402.241,44.103L418.687,52.839C418.824,52.912 418.978,52.95 419.133,52.95C419.654,52.95 420.083,52.522 420.083,52.001C420.083,51.865 420.053,51.73 419.997,51.606L412.277,34.681L425.45,22.298C425.748,22.019 425.834,21.578 425.663,21.207C425.505,20.827 425.105,20.6 424.697,20.661Z" style="fill:white;fill-rule:nonzero;"/>
                </g>
                <g transform="matrix(1,0,0,1,0,5.547269)">
                    <path d="M328.058,55.103L338.711,40.493C338.95,40.163 338.952,39.715 338.716,39.383L338.715,39.381C338.488,39.039 338.055,38.891 337.665,39.025L320.422,44.277L309.288,28.494C309.048,28.165 308.626,28.02 308.234,28.133C307.842,28.252 307.57,28.613 307.563,29.022L307.189,48.308L289.326,53.748C288.927,53.87 288.653,54.24 288.653,54.657C288.653,55.06 288.909,55.421 289.29,55.554L306.929,61.706L306.551,81.237C306.551,81.243 306.551,81.249 306.551,81.255C306.551,81.776 306.98,82.205 307.501,82.205C307.589,82.205 307.676,82.193 307.761,82.169C307.96,82.111 308.136,81.991 308.261,81.825L319.941,66.22L337.72,71.758C337.812,71.787 337.908,71.802 338.004,71.802C338.525,71.802 338.953,71.373 338.953,70.852C338.953,70.656 338.893,70.465 338.779,70.305L328.058,55.103Z" style="fill:white;fill-rule:nonzero;"/>
                </g>
                <g transform="matrix(1,0,0,1,0,5.547269)">
                    <path d="M253.829,89.785L262.742,74.054C262.943,73.699 262.895,73.253 262.622,72.95L262.621,72.949C262.357,72.633 261.908,72.536 261.537,72.714L245.006,79.903L232.142,65.495C231.864,65.198 231.429,65.103 231.053,65.257C230.677,65.421 230.449,65.81 230.488,66.218L232.321,85.419L215.197,92.865C214.85,93.016 214.625,93.359 214.625,93.737C214.625,94.18 214.935,94.567 215.367,94.664L233.594,98.759L235.45,118.205C235.496,118.69 235.909,119.065 236.396,119.065C236.733,119.065 237.046,118.886 237.216,118.594L247.036,101.757L265.333,105.228C265.391,105.239 265.45,105.244 265.509,105.244C266.03,105.244 266.459,104.815 266.459,104.294C266.459,104.061 266.373,103.836 266.218,103.662L253.829,89.785Z" style="fill:white;fill-rule:nonzero;"/>
                </g>
                <g transform="matrix(1,0,0,1,0,5.547269)">
                    <path d="M189.435,132.609L196.988,114.831C197.143,114.454 197.044,114.017 196.74,113.745C196.432,113.475 195.982,113.433 195.63,113.643L179.04,123.483L165.005,111.162C164.832,111.01 164.61,110.927 164.379,110.927C163.858,110.927 163.429,111.355 163.429,111.877C163.429,111.946 163.437,112.016 163.452,112.083L167.513,130.319L150.711,140.284C150.423,140.454 150.246,140.765 150.246,141.1C150.246,141.59 150.624,142.003 151.112,142.047L170.529,143.756L175.185,161.788C175.293,162.206 175.673,162.5 176.104,162.5C176.484,162.5 176.83,162.271 176.978,161.921L184.254,144.801L202.283,146.162C202.689,146.193 203.072,145.959 203.23,145.583L203.231,145.582C203.405,145.208 203.302,144.76 202.981,144.5L189.435,132.609Z" style="fill:white;fill-rule:nonzero;"/>
                </g>
                <g transform="matrix(1,0,0,1,0,5.547269)">
                    <path d="M151.108,189.87L134.77,182.255L137.036,163.071C137.077,162.666 136.859,162.276 136.492,162.1C136.121,161.927 135.677,162.013 135.398,162.313L122.233,176.41L105.307,168.519C105.182,168.461 105.045,168.431 104.907,168.431C104.386,168.431 103.957,168.86 103.957,169.381C103.957,169.541 103.997,169.699 104.074,169.839L113.086,186.204L99.752,200.481C99.588,200.656 99.497,200.888 99.497,201.129C99.497,201.65 99.926,202.079 100.447,202.079C100.509,202.079 100.571,202.073 100.632,202.061L119.749,198.257L129.274,214.26C129.445,214.547 129.756,214.723 130.09,214.723C130.569,214.723 130.977,214.361 131.033,213.885L133.216,195.411L150.903,191.661C151.302,191.577 151.604,191.245 151.65,190.84L151.651,190.839C151.712,190.431 151.488,190.031 151.108,189.87Z" style="fill:white;fill-rule:nonzero;"/>
                </g>
                <g transform="matrix(1,0,0,1,0,5.547269)">
                    <path d="M109.234,245.174C109.178,244.765 108.847,244.445 108.437,244.401L90.604,241.769L87.296,222.738C87.22,222.338 86.9,222.027 86.498,221.962C86.093,221.902 85.692,222.112 85.51,222.479L76.92,239.75L58.447,237.023C58.401,237.016 58.354,237.012 58.308,237.012C57.787,237.012 57.358,237.441 57.358,237.962C57.358,238.217 57.46,238.461 57.641,238.639L70.952,251.748L62.251,269.239C62.186,269.37 62.153,269.515 62.153,269.661C62.153,270.182 62.582,270.611 63.103,270.611C63.257,270.611 63.409,270.574 63.546,270.502L80.78,261.396L94.479,274.01C94.655,274.171 94.884,274.261 95.123,274.261C95.644,274.261 96.072,273.833 96.072,273.312C96.072,273.257 96.068,273.203 96.058,273.149L92.873,254.822L108.752,246.176C109.111,245.981 109.305,245.577 109.233,245.175L109.234,245.174Z" style="fill:white;fill-rule:nonzero;"/>
                </g>
                <g transform="matrix(1,0,0,1,0,5.547269)">
                    <path d="M77.102,308.695L59.097,307.826L53.937,289.213C53.822,288.822 53.473,288.543 53.066,288.517C52.657,288.497 52.279,288.745 52.134,289.128L45.28,307.158L26.628,306.257C26.613,306.257 26.597,306.256 26.582,306.256C26.061,306.256 25.632,306.685 25.632,307.206C25.632,307.493 25.762,307.765 25.986,307.945L40.518,319.685L33.575,337.946C33.535,338.053 33.514,338.167 33.514,338.282C33.514,338.803 33.943,339.232 34.464,339.232C34.65,339.232 34.833,339.177 34.988,339.074L51.246,328.322L66.118,339.532C66.282,339.655 66.482,339.722 66.688,339.722C67.209,339.722 67.638,339.293 67.638,338.772C67.638,338.687 67.626,338.601 67.603,338.519L62.636,320.592L77.59,310.43C77.927,310.201 78.081,309.779 77.97,309.386C77.875,308.984 77.515,308.698 77.102,308.695Z" style="fill:white;fill-rule:nonzero;"/>
                </g>
                <g transform="matrix(1,0,0,1,0,5.547269)">
                    <path d="M57.646,379.144L39.623,379.472L33.239,361.242C33.091,360.865 32.728,360.613 32.323,360.606C31.914,360.614 31.553,360.886 31.435,361.278L25.793,379.723L7.122,380.062C6.607,380.072 6.19,380.498 6.19,381.012C6.19,381.321 6.34,381.612 6.593,381.789L21.873,392.538L16.159,411.218C16.131,411.308 16.117,411.402 16.117,411.497C16.117,412.017 16.545,412.446 17.066,412.446C17.066,412.446 17.067,412.446 17.067,412.446C17.275,412.445 17.477,412.377 17.642,412.252L33.15,400.444L48.732,410.64C48.887,410.741 49.068,410.796 49.253,410.796C49.774,410.796 50.202,410.367 50.202,409.846C50.202,409.739 50.184,409.633 50.149,409.533L44.002,391.975L58.248,380.842C58.57,380.591 58.695,380.159 58.558,379.775C58.436,379.381 58.058,379.12 57.646,379.144Z" style="fill:white;fill-rule:nonzero;"/>
                </g>
                <g transform="matrix(1,0,0,1,0,5.547269)">
                    <rect x="375.68" y="544.528" width="28.56" height="26.64" style="fill:white;"/>
                </g>
                <g transform="matrix(1,0,0,1,0,5.547269)">
                    <path d="M419.6,456.688L419.6,571.168L450.56,571.168L450.56,537.818L477.195,537.818C499.448,537.818 517.76,519.506 517.76,497.253L517.76,497.253C517.76,475 499.448,456.688 477.195,456.688L419.6,456.688ZM468.625,514.958L450.56,514.958L450.56,478.608L468.625,478.608C478.596,478.608 486.8,486.812 486.8,496.783C486.8,496.783 486.8,496.783 486.8,496.783C486.8,506.753 478.596,514.958 468.625,514.958C468.625,514.958 468.625,514.958 468.625,514.958Z" style="fill:white;fill-rule:nonzero;"/>
                </g>
                <g transform="matrix(1,0,0,1,0,5.547269)">
                    <path d="M566.4,456.688L566.4,571.168L597.36,571.168L597.36,537.818L623.995,537.818C646.248,537.818 664.56,519.506 664.56,497.253L664.56,497.253C664.56,475 646.248,456.688 623.995,456.688L566.4,456.688ZM615.425,514.958L597.36,514.958L597.36,478.608L615.425,478.608C625.396,478.608 633.6,486.812 633.6,496.783C633.6,496.783 633.6,496.783 633.6,496.783C633.6,506.753 625.396,514.958 615.425,514.958C615.425,514.958 615.425,514.958 615.425,514.958Z" style="fill:white;fill-rule:nonzero;"/>
                </g>
                <g transform="matrix(1,0,0,1,0,5.547269)">
                    <rect x="522.08" y="544.528" width="28.56" height="26.64" style="fill:white;"/>
                </g>
                <g transform="matrix(1,0,0,1,0,5.547269)">
                    <rect x="667.34" y="544.528" width="29.94" height="26.64" style="fill:white;"/>
                </g>
                <g transform="matrix(1,0,0,1,0,5.547269)">
                    <path d="M360.42,544.528L358.14,537.818L350.38,514.958L338.03,478.608L330.59,456.688L284.92,456.688L277.79,478.608L265.97,514.958L258.54,537.818L256.36,544.528L247.69,571.168L278.93,571.168L286.13,547.588L329.21,547.588L336.3,571.168L369.46,571.168L360.42,544.528ZM293.88,522.208L296.1,514.958L307.19,478.608L307.84,476.488L308.48,478.608L319.4,514.958L321.58,522.208L293.88,522.208Z" style="fill:white;fill-rule:nonzero;"/>
                </g>
                <g transform="matrix(2.347357,0,0,2.347357,-2066.193393,-482.495084)">
                    <g transform="matrix(1,0,0,1,1255.194956,-339.664377)">
                        <path d="M112.397,701.431L106.082,701.431L100.92,687.631L80.273,687.631L75.417,701.431L69.067,701.431L87.744,652.204L93.653,652.204L112.397,701.431ZM99.052,682.447L91.412,661.473C91.071,660.397 90.821,659.294 90.665,658.177L90.528,658.177C90.369,659.297 90.108,660.4 89.748,661.473L82.175,682.447L99.052,682.447Z" style="fill:white;fill-rule:nonzero;"/>
                    </g>
                    <g transform="matrix(1,0,0,1,1255.194956,-339.664377)">
                        <path d="M144.828,701.431L119.563,701.431L119.563,652.204L125.268,652.204L125.268,696.213L144.828,696.213L144.828,701.431Z" style="fill:white;fill-rule:nonzero;"/>
                    </g>
                    <g transform="matrix(1,0,0,1,1255.194956,-339.664377)">
                        <path d="M162.758,652.204L162.758,657.146L158.004,657.146L158.004,696.487L162.758,696.487L162.758,701.431L147.544,701.431L147.544,696.487L152.299,696.487L152.299,657.146L147.544,657.146L147.544,652.204L162.758,652.204Z" style="fill:white;fill-rule:nonzero;"/>
                    </g>
                    <g transform="matrix(1,0,0,1,1255.194956,-339.664377)">
                        <path d="M208.5,701.431L202.184,701.431L197.022,687.631L176.375,687.631L171.519,701.431L165.169,701.431L183.846,652.204L189.755,652.204L208.5,701.431ZM195.154,682.447L187.514,661.473C187.173,660.397 186.923,659.294 186.767,658.177L186.63,658.177C186.471,659.297 186.21,660.4 185.85,661.473L178.277,682.447L195.154,682.447Z" style="fill:white;fill-rule:nonzero;"/>
                    </g>
                    <g transform="matrix(1,0,0,1,1255.194956,-339.664377)">
                        <path d="M254.92,701.431L247.925,701.431L222.864,662.193C222.236,661.221 221.712,660.186 221.301,659.104L221.098,659.104C221.337,661.349 221.428,663.608 221.37,665.866L221.37,701.431L215.665,701.431L215.665,652.204L223.067,652.204L247.449,690.823C248.468,692.426 249.125,693.524 249.419,694.119L249.555,694.119C249.275,691.715 249.162,689.295 249.215,686.875L249.215,652.204L254.92,652.204L254.92,701.431Z" style="fill:white;fill-rule:nonzero;"/>
                    </g>
                    <g transform="matrix(1,0,0,1,1255.194956,-339.664377)">
                        <path d="M299.474,653.577L270.949,696.213L298.794,696.213L298.794,701.431L262.425,701.431L262.425,699.817L290.712,657.422L264.701,657.422L264.701,652.204L299.474,652.204L299.474,653.577Z" style="fill:white;fill-rule:nonzero;"/>
                    </g>
                    <g transform="matrix(1,0,0,1,1255.194956,-339.664377)">
                        <path d="M345.045,701.431L338.729,701.431L333.568,687.631L312.921,687.631L308.065,701.431L301.715,701.431L320.392,652.204L326.301,652.204L345.045,701.431ZM331.7,682.447L324.06,661.473C323.719,660.397 323.469,659.294 323.312,658.177L323.176,658.177C323.017,659.297 322.755,660.4 322.396,661.473L314.823,682.447L331.7,682.447Z" style="fill:white;fill-rule:nonzero;"/>
                    </g>
                    <g transform="matrix(1,0,0,1,1255.194956,-339.664377)">
                        <path d="M376.966,682.824L376.966,701.431L371.261,701.431L371.261,652.204L384.641,652.204C389.847,652.204 393.882,653.486 396.747,656.049C399.61,658.612 401.042,662.228 401.043,666.896C401.183,671.226 399.442,675.411 396.272,678.362C393.09,681.337 388.795,682.824 383.384,682.824L376.966,682.824ZM376.966,657.422L376.966,677.606L382.943,677.606C386.882,677.606 389.887,676.697 391.959,674.878C394.095,672.905 395.237,670.074 395.066,667.171C395.066,660.672 391.263,657.422 383.656,657.422L376.966,657.422Z" style="fill:white;fill-rule:nonzero;"/>
                    </g>
                    <g transform="matrix(1,0,0,1,1255.194956,-339.664377)">
                        <path d="M445.121,701.431L438.329,701.431L430.179,687.631C429.526,686.492 428.8,685.397 428.005,684.353C427.381,683.528 426.657,682.784 425.849,682.138C425.139,681.58 424.334,681.155 423.472,680.885C422.541,680.61 421.573,680.477 420.602,680.49L415.916,680.49L415.916,701.431L410.211,701.431L410.211,652.204L424.746,652.204C426.738,652.185 428.723,652.457 430.637,653.011C432.349,653.502 433.944,654.337 435.323,655.465C436.658,656.577 437.721,657.981 438.431,659.567C439.213,661.381 439.596,663.342 439.551,665.317C439.569,666.923 439.311,668.519 438.787,670.037C438.298,671.433 437.561,672.73 436.614,673.865C435.652,675.005 434.503,675.975 433.218,676.731C431.823,677.55 430.32,678.169 428.752,678.568L428.752,678.705C429.508,679.036 430.22,679.457 430.875,679.958C431.502,680.454 432.076,681.011 432.59,681.623C433.171,682.316 433.71,683.044 434.203,683.803C434.734,684.615 435.329,685.559 435.986,686.635L445.121,701.431ZM415.916,657.422L415.916,675.272L423.659,675.272C425.005,675.286 426.344,675.065 427.615,674.62C428.777,674.214 429.846,673.578 430.756,672.749C431.654,671.915 432.361,670.896 432.828,669.763C433.341,668.505 433.595,667.156 433.575,665.798C433.701,663.469 432.771,661.204 431.045,659.636C429.358,658.159 426.918,657.421 423.727,657.422L415.916,657.422Z" style="fill:white;fill-rule:nonzero;"/>
                    </g>
                    <g transform="matrix(1,0,0,1,1255.194956,-339.664377)">
                        <path d="M471.438,702.255C464.533,702.255 459.004,699.955 454.85,695.354C450.695,690.755 448.618,684.77 448.618,677.4C448.618,669.482 450.735,663.166 454.969,658.451C459.202,653.737 464.963,651.38 472.253,651.38C478.977,651.38 484.393,653.668 488.502,658.245C492.611,662.823 494.666,668.808 494.666,676.199C494.666,684.232 492.561,690.583 488.35,695.252C484.139,699.92 478.502,702.254 471.438,702.255ZM471.846,656.598C467.056,656.452 462.457,658.517 459.383,662.193C456.191,665.924 454.595,670.821 454.595,676.886C454.595,682.951 456.152,687.832 459.264,691.527C462.241,695.16 466.744,697.21 471.438,697.071C476.781,697.071 480.992,695.309 484.071,691.784C487.148,688.261 488.688,683.329 488.689,676.989C488.689,670.489 487.195,665.466 484.207,661.919C481.218,658.371 477.098,656.597 471.846,656.598Z" style="fill:white;fill-rule:nonzero;"/>
                    </g>
                    <g transform="matrix(1,0,0,1,1255.194956,-339.664377)">
                        <path d="M535.891,652.204L519.828,683.236L519.828,701.431L514.123,701.431L514.123,683.374L498.469,652.204L504.955,652.204L515.855,674.448C515.991,674.723 516.387,675.73 517.044,677.47L517.146,677.47C517.483,676.426 517.916,675.414 518.437,674.448L529.846,652.204L535.891,652.204Z" style="fill:white;fill-rule:nonzero;"/>
                    </g>
                    <g transform="matrix(1,0,0,1,1255.194956,-339.664377)">
                        <path d="M568.491,701.431L542.683,701.431L542.683,652.204L567.404,652.204L567.404,657.422L548.388,657.422L548.388,673.796L565.979,673.796L565.979,678.979L548.388,678.979L548.388,696.213L568.491,696.213L568.491,701.431Z" style="fill:white;fill-rule:nonzero;"/>
                    </g>
                    <g transform="matrix(1,0,0,1,1255.194956,-339.664377)">
                        <path d="M611.007,699.371C607.407,701.293 602.925,702.254 597.56,702.255C590.632,702.255 585.085,700.001 580.92,695.492C576.754,690.983 574.671,685.067 574.672,677.744C574.672,669.871 577.015,663.509 581.701,658.657C586.346,653.823 592.828,651.177 599.529,651.38C603.454,651.252 607.363,651.941 611.007,653.405L611.007,659.55C607.483,657.572 603.501,656.554 599.461,656.598C594.321,656.409 589.347,658.481 585.86,662.262C582.386,666.038 580.648,671.084 580.648,677.4C580.648,683.397 582.273,688.174 585.521,691.732C588.791,695.301 593.471,697.255 598.307,697.071C602.765,697.185 607.167,696.043 611.007,693.775L611.007,699.371Z" style="fill:white;fill-rule:nonzero;"/>
                    </g>
                    <g transform="matrix(1,0,0,1,1255.194956,-339.664377)">
                        <path d="M649.719,657.422L635.66,657.422L635.66,701.431L629.955,701.431L629.955,657.422L615.931,657.422L615.931,652.204L649.719,652.204L649.719,657.422Z" style="fill:white;fill-rule:nonzero;"/>
                    </g>
                    <g transform="matrix(1,0,0,1,1255.194956,-339.664377)">
                        <path d="M676.987,702.255C670.082,702.255 664.553,699.955 660.399,695.354C656.244,690.755 654.167,684.77 654.168,677.4C654.168,669.482 656.285,663.166 660.518,658.451C664.751,653.737 670.513,651.38 677.803,651.38C684.526,651.38 689.943,653.668 694.052,658.245C698.16,662.823 700.214,668.808 700.215,676.199C700.215,684.232 698.109,690.583 693.898,695.252C689.688,699.92 684.051,702.254 676.987,702.255ZM677.396,656.598C672.606,656.452 668.006,658.517 664.933,662.193C661.74,665.924 660.144,670.821 660.145,676.886C660.145,682.951 661.701,687.832 664.813,691.527C667.791,695.16 672.293,697.21 676.987,697.071C682.33,697.071 686.541,695.309 689.62,691.784C692.698,688.261 694.238,683.329 694.238,676.989C694.238,670.489 692.744,665.466 689.756,661.919C686.768,658.371 682.647,656.597 677.396,656.598Z" style="fill:white;fill-rule:nonzero;"/>
                    </g>
                    <g transform="matrix(1,0,0,1,1255.194956,-339.664377)">
                        <path d="M734.546,682.824L734.546,701.431L728.841,701.431L728.841,652.204L742.221,652.204C747.428,652.204 751.463,653.486 754.327,656.049C757.19,658.612 758.622,662.228 758.623,666.896C758.764,671.226 757.022,675.411 753.852,678.362C750.671,681.337 746.375,682.824 740.964,682.824L734.546,682.824ZM734.546,657.422L734.546,677.606L740.522,677.606C744.462,677.606 747.467,676.697 749.539,674.878C751.675,672.905 752.816,670.074 752.646,667.171C752.646,660.672 748.842,657.422 741.236,657.422L734.546,657.422Z" style="fill:white;fill-rule:nonzero;"/>
                    </g>
                    <g transform="matrix(1,0,0,1,1255.194956,-339.664377)">
                        <path d="M805.485,701.431L799.169,701.431L794.007,687.631L773.36,687.631L768.505,701.431L762.154,701.431L780.831,652.204L786.74,652.204L805.485,701.431ZM792.14,682.447L784.499,661.473C784.158,660.397 783.908,659.294 783.752,658.177L783.616,658.177C783.457,659.297 783.195,660.4 782.835,661.473L775.262,682.447L792.14,682.447Z" style="fill:white;fill-rule:nonzero;"/>
                    </g>
                    <g transform="matrix(1,0,0,1,1255.194956,-339.664377)">
                        <path d="M823.11,652.204L823.11,657.146L818.355,657.146L818.355,696.487L823.11,696.487L823.11,701.431L807.896,701.431L807.896,696.487L812.65,696.487L812.65,657.146L807.896,657.146L807.896,652.204L823.11,652.204ZM823.552,636.412L814.654,647.672L810.342,647.672L817.914,636.412L823.552,636.412Z" style="fill:white;fill-rule:nonzero;"/>
                    </g>
                    <g transform="matrix(1,0,0,1,1255.194956,-339.664377)">
                        <path d="M828.883,699.439L828.883,692.643C829.722,693.377 830.652,694 831.65,694.496C832.742,695.052 833.878,695.518 835.046,695.887C836.218,696.26 837.415,696.553 838.628,696.762C839.727,696.959 840.84,697.062 841.956,697.071C845.465,697.071 848.085,696.413 849.817,695.097C852.45,692.833 853.172,689.018 851.55,685.948C850.924,684.91 850.113,683.997 849.155,683.254C848.023,682.368 846.813,681.586 845.539,680.919C844.146,680.176 842.646,679.392 841.039,678.568C839.342,677.698 837.757,676.817 836.285,675.925C834.894,675.095 833.607,674.104 832.448,672.973C831.378,671.92 830.509,670.681 829.884,669.316C828.476,665.868 828.669,661.967 830.41,658.675C831.365,657.036 832.677,655.634 834.248,654.572C835.902,653.466 837.734,652.653 839.664,652.169C841.688,651.643 843.77,651.378 845.861,651.38C850.661,651.38 854.159,651.964 856.354,653.131L856.354,659.618C853.479,657.605 849.789,656.599 845.284,656.598C844.029,656.599 842.777,656.731 841.549,656.992C840.374,657.228 839.248,657.664 838.221,658.28C837.265,658.858 836.452,659.644 835.844,660.58C835.207,661.609 834.888,662.803 834.927,664.013C834.898,665.139 835.137,666.257 835.623,667.273C836.129,668.241 836.828,669.094 837.678,669.78C838.707,670.618 839.816,671.354 840.988,671.977C842.29,672.687 843.79,673.465 845.488,674.312C847.231,675.182 848.884,676.097 850.446,677.058C851.933,677.961 853.312,679.032 854.555,680.25C855.701,681.375 856.649,682.687 857.356,684.129C858.07,685.653 858.424,687.321 858.393,689.004C858.459,691.145 857.974,693.267 856.982,695.166C856.067,696.822 854.762,698.23 853.18,699.268C851.494,700.358 849.624,701.132 847.661,701.551C845.498,702.029 843.288,702.265 841.073,702.255C840.12,702.243 839.167,702.18 838.221,702.065C837.089,701.939 835.934,701.757 834.757,701.517C833.624,701.289 832.507,700.991 831.412,700.624C830.519,700.346 829.668,699.947 828.883,699.439Z" style="fill:white;fill-rule:nonzero;"/>
                    </g>
                </g>
            </g>
        </g>
    </g>
</svg>
